<?xml version="1.0" encoding="UTF-8"?>
<svg id="Ebene_2" data-name="Ebene 2" xmlns="http://www.w3.org/2000/svg" viewBox="0 0 956.17853 332.15379">
  <defs>
    <style>
      .cls-1 {
        fill: #fff;
        stroke-width: 0px;
      }
    </style>
  </defs>
  <g id="Logo_FINAL_white" data-name="Logo FINAL white">
    <g>
      <path class="cls-1" d="m770.79954,5.37881l-50.22766.08789c-2.38684,0-4.67615.94824-6.36389,2.63605l-109.45459,109.30902V15.65158c0-4.97058-3.59961-9-8.04004-9h-37.55225c-4.44031,0-8.03992,4.02942-8.03992,9v302.12335c0,4.97058,3.59961,9,8.03992,9h37.55225c4.44043,0,8.04004-4.02942,8.04004-9v-124.62183L777.16355,20.74277c5.66968-5.66968,1.65405-15.36395-6.36401-15.36395Z"/>
      <path class="cls-1" d="m228.79874,50.65339h-74.34206c-4.97056,0-9,4.02944-9,9v258.12157c0,4.97056-4.02944,9-9,9h-35.34145c-4.97056,0-9-4.02944-9-9V59.65339c0-4.97056-4.02944-9-9-9H9c-4.97056,0-9-4.02944-9-9V14.37883C0,9.40827,4.02944,5.37883,9,5.37883h219.79874c4.97056,0,9,4.02944,9,9v27.27456c0,4.97056-4.02944,9-9,9Z"/>
      <path class="cls-1" d="m490.38657,307.72539c0,3.46595-1.97516,6.65455-5.11576,8.12063-23.28941,10.87185-51.69405,16.30777-85.20517,16.30777-46.61927,0-83.97499-14.71573-112.06445-44.15261-28.09218-29.43417-42.13419-68.05582-42.13419-115.8731,0-51.39774,15.79964-92.93428,47.40164-124.61234C324.87064,15.84039,364.79896,0,413.06176,0c28.16234,0,51.97014,3.6206,71.42339,10.8598,3.54045,1.31752,5.90142,4.67835,5.90142,8.456v31.92952c0,6.57571-6.81157,10.9063-12.78471,8.15646-18.18597-8.37223-37.83033-12.55976-58.93307-12.55976-34.82115,0-63.01927,11.13255-84.60795,33.39495-21.59411,22.26511-32.38709,51.9981-32.38709,89.20169,0,35.41337,10.08667,63.61692,30.25729,84.60795,20.17062,20.99375,46.6899,31.49062,79.56598,31.49062,24.65657,0,46.64851-4.74211,65.97582-14.22341,5.95931-2.92343,12.91373,1.46044,12.91373,8.09819v28.31337Z"/>
      <path class="cls-1" d="m953.80711,105.2247l-26.55334-26.55353c-3.13977-3.13977-8.20532-3.16486-11.31421-.05597l-175.96436,175.96411-66.76636-66.76636c-3.51477-3.51471-9.21326-3.51471-12.72791,0l-25.16772,25.16766c-3.51465,3.51471-3.51465,9.2132,0,12.72791l98.43042,98.43036c3.51465,3.51477,9.21313,3.51477,12.72791,0l25.1676-25.16766c.38232-.38232.71521-.79443,1.0144-1.22284l181.20972-181.20953c3.10876-3.10883,3.08374-8.17438-.05615-11.31415Z"/>
    </g>
  </g>
</svg>